PathFileType	4	(X/Y/Z)	/Users/itak/Documents/Research/Walk-IL/dataset/trc/00163_00008.trc
DataRate	CameraRate	NumFrames	NumMarkers	Units	OrigDataRate	OrigDataStartFrame	OrigNumFrames
100.000000	100.000000	4	53	mm	100.000000	69	552
Frame#	Time	RPSI			LPSI			L3			STRN			T10			C7			CLAV			RBAK			LBAK			LSHO			LUPA			LAEL			LAOL			LWTS			LWPS			LFRA			LIFD			LHPS			LHTS			RSHO			RUPA			RAEL			RAOL			RWTS			RWPS			RFRA			RIFD			RHTS			RHPS			RBHD			LFHD			RFHD			LBHD			LHIP			RHIP			RASI			LASI			LKNE			LTHI			LANK			LTIP			LTOE			LMT1			LMT5			LHEE			RKNE			RTHI			RANK			RTIP			RTOE			RMT1			RMT5			RHEE			
		X1	Y1	Z1	X2	Y2	Z2	X3	Y3	Z3	X4	Y4	Z4	X5	Y5	Z5	X6	Y6	Z6	X7	Y7	Z7	X8	Y8	Z8	X9	Y9	Z9	X10	Y10	Z10	X11	Y11	Z11	X12	Y12	Z12	X13	Y13	Z13	X14	Y14	Z14	X15	Y15	Z15	X16	Y16	Z16	X17	Y17	Z17	X18	Y18	Z18	X19	Y19	Z19	X20	Y20	Z20	X21	Y21	Z21	X22	Y22	Z22	X23	Y23	Z23	X24	Y24	Z24	X25	Y25	Z25	X26	Y26	Z26	X27	Y27	Z27	X28	Y28	Z28	X29	Y29	Z29	X30	Y30	Z30	X31	Y31	Z31	X32	Y32	Z32	X33	Y33	Z33	X34	Y34	Z34	X35	Y35	Z35	X36	Y36	Z36	X37	Y37	Z37	X38	Y38	Z38	X39	Y39	Z39	X40	Y40	Z40	X41	Y41	Z41	X42	Y42	Z42	X43	Y43	Z43	X44	Y44	Z44	X45	Y45	Z45	X46	Y46	Z46	X47	Y47	Z47	X48	Y48	Z48	X49	Y49	Z49	X50	Y50	Z50	X51	Y51	Z51	X52	Y52	Z52	X53	Y53	Z53	

70	0.6900000000000001	-1945.283935546875	1051.313720703125	12.53853893280029	-1938.769897460938	1049.510375976562	-111.3618240356445	-1941.770385742188	1087.964721679688	-46.9377555847168	-1682.66845703125	1302.199340820312	-50.70759201049805	-1979.84423828125	1244.25146484375	-55.92971420288086	-1917.862915039062	1514.257202148438	-69.45088195800781	-1712.575317382812	1415.612182617188	-62.05569839477539	-1982.851196289062	1340.153930664062	43.22401428222656	-1921.35498046875	1488.713012695312	-171.2534332275391	-1841.355102539062	1476.332153320312	-247.8484497070312	-1863.74169921875	1343.453979492188	-323.1587524414062	-1834.400390625	1123.544189453125	-338.7576904296875	-1894.06298828125	1109.107055664062	-275.5057373046875	-1725.220703125	897.8873901367188	-276.9205627441406	-1794.067016601562	871.5526123046875	-335.3743591308594	-1813.716430664062	1013.345825195312	-346.6492004394531	-1707.864624023438	715.4305419921875	-241.0894470214844	-1770.628051757812	802.714599609375	-322.7546081542969	-1705.9150390625	820.6605224609375	-293.1310119628906	-1855.42626953125	1498.938720703125	112.1146774291992	-1871.419189453125	1433.011474609375	184.2367401123047	-1859.883911132812	1142.5419921875	244.3115539550781	-1874.742919921875	1135.302490234375	146.8011779785156	-1706.81982421875	925.1451416015625	201.7628631591797	-1771.853759765625	903.4041748046875	260.580810546875	-1826.451171875	1071.620971679688	258.1917114257812	-1679.85546875	737.0691528320312	175.422607421875	-1674.135986328125	832.7333984375	203.7292175292969	-1738.602661132812	821.7354125976562	250.5871276855469	-1853.181030273438	1685.239013671875	-4.173955917358398	-1671.0439453125	1715.7041015625	-120.0524978637695	-1681.662353515625	1719.145385742188	8.907480239868164	-1847.116455078125	1689.67626953125	-142.1431427001953	-1829.253784179688	987.3997802734375	-226.6801910400391	-1793.155395507812	1013.708312988281	141.7102661132812	-1708.981323242188	1040.753540039062	88.50691223144531	-1705.9013671875	1026.305297851562	-168.5236053466797	-1825.72265625	493.6610412597656	-201.0453643798828	-1811.041748046875	636.2897338867188	-225.7683410644531	-1936.960571289062	45.01870346069336	-223.8147583007812	-1879.0927734375	275.6529541015625	-224.7341461181641	-1717.5673828125	39.17189407348633	-207.03076171875	-1765.983032226562	37.12017440795898	-156.8368835449219	-1830.23193359375	35.00818634033203	-267.4229125976562	-1985.449462890625	41.46298217773438	-151.3724670410156	-1811.799438476562	514.9407348632812	135.9288482666016	-1749.413818359375	781.7535400390625	157.4266815185547	-1910.644775390625	38.98074722290039	147.0686187744141	-1807.487670898438	398.83251953125	123.502815246582	-1685.607299804688	38.55879592895508	131.8816833496094	-1737.056274414062	36.40979385375977	80.93522644042969	-1801.682495117188	33.91855621337891	191.4479370117188	-1955.278198242188	37.74756240844727	75.53831481933594	
71	0.7000000000000001	-1945.348388671875	1051.358520507812	12.51816177368164	-1938.811279296875	1049.481079101562	-111.3683624267578	-1941.790405273438	1087.975341796875	-46.96821212768555	-1682.750122070312	1302.2275390625	-50.63182830810547	-1979.928833007812	1244.221069335938	-56.03003692626953	-1917.926391601562	1514.244750976562	-69.56166839599609	-1712.657348632812	1415.641235351562	-62.00740051269531	-1982.955200195312	1340.14794921875	43.12188720703125	-1921.330444335938	1488.688720703125	-171.3380279541016	-1841.271362304688	1476.307006835938	-247.8625030517578	-1863.607055664062	1343.425170898438	-323.2169799804688	-1834.233642578125	1123.522216796875	-338.8019409179688	-1893.946655273438	1109.07275390625	-275.5965270996094	-1725.106323242188	897.884521484375	-276.9258422851562	-1793.882934570312	871.5276489257812	-335.4481811523438	-1813.601806640625	1013.330322265625	-346.7211608886719	-1707.646606445312	715.3764038085938	-241.1977996826172	-1770.458862304688	802.6921997070312	-322.8349304199219	-1705.755859375	820.6386108398438	-293.2060241699219	-1855.57861328125	1498.982788085938	112.0572738647461	-1871.6513671875	1433.042358398438	184.2236938476562	-1860.185913085938	1142.585693359375	244.269287109375	-1874.9755859375	1135.353881835938	146.7397766113281	-1707.152221679688	925.1207275390625	201.8182678222656	-1772.184936523438	903.4112548828125	260.5929260253906	-1826.801635742188	1071.655029296875	258.1753845214844	-1680.265502929688	736.9860229492188	175.5784606933594	-1674.661010742188	832.71728515625	203.8569793701172	-1739.126342773438	821.71875	250.6494598388672	-1853.643310546875	1685.246337890625	-4.501008987426758	-1671.079833984375	1715.849487304688	-119.6146240234375	-1682.270629882812	1719.34326171875	9.326210975646973	-1847.007080078125	1689.538330078125	-142.4262084960938	-1829.141235351562	987.3547973632812	-226.5824890136719	-1793.32275390625	1013.696960449219	141.8038635253906	-1709.119140625	1040.836669921875	88.63027191162109	-1705.914916992188	1026.3134765625	-168.3973693847656	-1825.756469726562	493.6663513183594	-201.0785827636719	-1811.012817382812	636.284423828125	-225.7511901855469	-1936.981201171875	44.98666763305664	-223.8786315917969	-1879.113647460938	275.6394958496094	-224.78369140625	-1717.578247070312	39.17169189453125	-207.0330505371094	-1765.995849609375	37.12903594970703	-156.8469543457031	-1830.240478515625	34.98838806152344	-267.4644470214844	-1985.474243164062	41.43613815307617	-151.4371337890625	-1811.827758789062	515.0205078125	135.9536437988281	-1749.521606445312	781.7705688476562	157.5940093994141	-1910.653930664062	38.97118377685547	147.0794067382812	-1807.4521484375	398.8277587890625	123.5696487426758	-1685.617797851562	38.56449127197266	131.8836059570312	-1737.066650390625	36.41875076293945	80.94345092773438	-1801.68359375	33.91708374023438	191.4543151855469	-1955.270751953125	37.73033905029297	75.56501007080078	
72	0.71	-1945.415771484375	1051.424194335938	12.49927806854248	-1938.855102539062	1049.464477539062	-111.3727645874023	-1941.811645507812	1088.000366210938	-46.99225616455078	-1682.825073242188	1302.258422851562	-50.55606842041016	-1980.009155273438	1244.207275390625	-56.12245941162109	-1917.973388671875	1514.241455078125	-69.66434478759766	-1712.7275390625	1415.675048828125	-61.95499801635742	-1983.0439453125	1340.149047851562	43.03155136108398	-1921.297241210938	1488.671142578125	-171.4183349609375	-1841.181518554688	1476.284423828125	-247.8793487548828	-1863.472778320312	1343.402221679688	-323.2717895507812	-1834.046508789062	1123.502685546875	-338.8272094726562	-1893.813720703125	1109.041259765625	-275.6697082519531	-1724.953979492188	897.891845703125	-276.9096069335938	-1793.680297851562	871.5077514648438	-335.4958801269531	-1813.47802734375	1013.320068359375	-346.7748107910156	-1707.419921875	715.3381958007812	-241.2764282226562	-1770.275390625	802.6753540039062	-322.8866882324219	-1705.571166992188	820.614990234375	-293.2549438476562	-1855.722778320312	1499.034912109375	111.9999618530273	-1871.866821289062	1433.081420898438	184.2136840820312	-1860.5029296875	1142.636474609375	244.2306823730469	-1875.209594726562	1135.409790039062	146.6780853271484	-1707.492797851562	925.0985717773438	201.8959655761719	-1772.547729492188	903.4273681640625	260.6063232421875	-1827.16796875	1071.694580078125	258.1531372070312	-1680.714233398438	736.90625	175.7673645019531	-1675.187866210938	832.708984375	203.9966735839844	-1739.64404296875	821.7159423828125	250.7240142822266	-1854.09228515625	1685.259521484375	-4.80014705657959	-1671.110961914062	1716.0087890625	-119.1734161376953	-1682.850463867188	1719.526123046875	9.742259979248047	-1846.909423828125	1689.417114257812	-142.6798858642578	-1829.019409179688	987.3088989257812	-226.4716949462891	-1793.480590820312	1013.67919921875	141.9037322998047	-1709.249633789062	1040.940551757812	88.77937316894531	-1705.93994140625	1026.324584960938	-168.2676391601562	-1825.817749023438	493.677734375	-201.1258544921875	-1810.995483398438	636.2794189453125	-225.7393951416016	-1937.008666992188	44.94367599487305	-223.9559020996094	-1879.152099609375	275.630615234375	-224.8458251953125	-1717.592895507812	39.17259979248047	-207.0371398925781	-1766.012451171875	37.14183807373047	-156.8612823486328	-1830.251220703125	34.96140670776367	-267.51611328125	-1985.506713867188	41.40811538696289	-151.5159912109375	-1811.847045898438	515.13134765625	135.9842529296875	-1749.64306640625	781.7994995117188	157.7956848144531	-1910.666137695312	38.95634078979492	147.0968780517578	-1807.400512695312	398.8133544921875	123.6452026367188	-1685.63427734375	38.57427597045898	131.8844299316406	-1737.08349609375	36.43239974975586	80.95444488525391	-1801.6865234375	33.91371536254883	191.4596252441406	-1955.26513671875	37.70418167114258	75.60022735595703	
73	0.72	-1945.48779296875	1051.5087890625	12.48305130004883	-1938.899780273438	1049.46484375	-111.375862121582	-1941.836181640625	1088.041748046875	-47.00963592529297	-1682.896240234375	1302.291259765625	-50.47830581665039	-1980.0849609375	1244.214233398438	-56.20592880249023	-1918.000732421875	1514.24951171875	-69.75553894042969	-1712.774536132812	1415.713256835938	-61.8906364440918	-1983.118530273438	1340.162353515625	42.95351791381836	-1921.254028320312	1488.661743164062	-171.4907531738281	-1841.083251953125	1476.265258789062	-247.8961029052734	-1863.336059570312	1343.389038085938	-323.3209533691406	-1833.836303710938	1123.488525390625	-338.8311767578125	-1893.663452148438	1109.014892578125	-275.7246704101562	-1724.759887695312	897.9102783203125	-276.8708801269531	-1793.462524414062	871.496337890625	-335.51708984375	-1813.340209960938	1013.317077636719	-346.80712890625	-1707.191162109375	715.3145751953125	-241.3238372802734	-1770.078369140625	802.665771484375	-322.9100341796875	-1705.361572265625	820.591064453125	-293.2744140625	-1855.85693359375	1499.094848632812	111.9474639892578	-1872.063110351562	1433.1298828125	184.2075347900391	-1860.833740234375	1142.69287109375	244.1946411132812	-1875.442016601562	1135.47119140625	146.6149291992188	-1707.832153320312	925.0812377929688	202.0011749267578	-1772.94775390625	903.4523315429688	260.6267395019531	-1827.544921875	1071.740600585938	258.1266174316406	-1681.186401367188	736.838623046875	175.9879760742188	-1675.694091796875	832.7100830078125	204.1529388427734	-1740.144287109375	821.7301025390625	250.8116760253906	-1854.527587890625	1685.276000976562	-5.069401264190674	-1671.136596679688	1716.17578125	-118.7308654785156	-1683.388549804688	1719.692138671875	10.14593124389648	-1846.823608398438	1689.31591796875	-142.8999481201172	-1828.891235351562	987.2646484375	-226.3485870361328	-1793.639282226562	1013.656921386719	142.0017700195312	-1709.389282226562	1041.061645507812	88.94907379150391	-1705.9765625	1026.337890625	-168.1331481933594	-1825.915161132812	493.6971740722656	-201.1840972900391	-1810.99609375	636.2758178710938	-225.7290191650391	-1937.042602539062	44.89059448242188	-224.0443725585938	-1879.212890625	275.6301879882812	-224.9164886474609	-1717.61279296875	39.17473983764648	-207.0430145263672	-1766.031860351562	37.15951538085938	-156.8795928955078	-1830.26416015625	34.92718505859375	-267.5766296386719	-1985.547607421875	41.38191604614258	-151.6065826416016	-1811.851684570312	515.2732543945312	136.0301818847656	-1749.775024414062	781.8421630859375	158.0357513427734	-1910.684204101562	38.93450546264648	147.1217956542969	-1807.32275390625	398.7835388183594	123.7333602905273	-1685.659545898438	38.58887481689453	131.8843078613281	-1737.107543945312	36.45113754272461	80.96726226806641	-1801.692016601562	33.90824890136719	191.4642028808594	-1955.267456054688	37.6712646484375	75.63742065429688	
